<svg xmlns="http://www.w3.org/2000/svg" width="32" height="32" viewBox="0 0 32 32" fill="none">
  <path d="M4 25.9419C4 28.1739 5.763 29.9999 7.918 29.9999H24.082C26.237 29.9999 28 28.0729 28 25.8399V6.42995C28 5.12995 26.41 4.52995 25.515 5.42995L20.974 9.99995H11.162L6.5 5.42995C5.6 4.52995 4 5.12995 4 6.42995V25.9419Z" fill="url(#paint0_linear_19_453)"/>
  <path d="M4 25.9419C4 28.1739 5.763 29.9999 7.918 29.9999H24.082C26.237 29.9999 28 28.0729 28 25.8399V6.42995C28 5.12995 26.41 4.52995 25.515 5.42995L20.974 9.99995H11.162L6.5 5.42995C5.6 4.52995 4 5.12995 4 6.42995V25.9419Z" fill="url(#paint1_linear_19_453)"/>
  <path d="M4 25.9419C4 28.1739 5.763 29.9999 7.918 29.9999H24.082C26.237 29.9999 28 28.0729 28 25.8399V6.42995C28 5.12995 26.41 4.52995 25.515 5.42995L20.974 9.99995H11.162L6.5 5.42995C5.6 4.52995 4 5.12995 4 6.42995V25.9419Z" fill="url(#paint2_linear_19_453)"/>
  <path d="M4 25.9419C4 28.1739 5.763 29.9999 7.918 29.9999H24.082C26.237 29.9999 28 28.0729 28 25.8399V6.42995C28 5.12995 26.41 4.52995 25.515 5.42995L20.974 9.99995H11.162L6.5 5.42995C5.6 4.52995 4 5.12995 4 6.42995V25.9419Z" fill="url(#paint3_linear_19_453)"/>
  <path d="M4 25.9419C4 28.1739 5.763 29.9999 7.918 29.9999H24.082C26.237 29.9999 28 28.0729 28 25.8399V6.42995C28 5.12995 26.41 4.52995 25.515 5.42995L20.974 9.99995H11.162L6.5 5.42995C5.6 4.52995 4 5.12995 4 6.42995V25.9419Z" fill="url(#paint4_linear_19_453)"/>
  <path d="M4 25.9419C4 28.1739 5.763 29.9999 7.918 29.9999H24.082C26.237 29.9999 28 28.0729 28 25.8399V6.42995C28 5.12995 26.41 4.52995 25.515 5.42995L20.974 9.99995H11.162L6.5 5.42995C5.6 4.52995 4 5.12995 4 6.42995V25.9419Z" fill="url(#paint5_radial_19_453)"/>
  <g filter="url(#filter0_f_19_453)">
    <path d="M6.41802 21.8201H6.41702C5.66425 21.8201 5.05402 22.4303 5.05402 23.1831V24.1551C5.05402 24.9078 5.66425 25.5181 6.41702 25.5181H6.41802C7.17078 25.5181 7.78102 24.9078 7.78102 24.1551V23.1831C7.78102 22.4303 7.17078 21.8201 6.41802 21.8201Z" fill="#D67908"/>
  </g>
  <g filter="url(#filter1_f_19_453)">
    <path d="M20.75 10.1999C17.767 10.3079 25.977 15.1539 25.977 15.1539L27.102 6.09194C27.157 5.63094 26.738 5.13794 25.852 5.96094L21.84 9.91294C21.653 10.0969 21.432 10.1629 21.138 10.2009C20.988 10.2209 20.902 10.1949 20.752 10.2009L20.75 10.1999Z" fill="url(#paint6_linear_19_453)"/>
  </g>
  <path d="M6.13304 13.5029L8.93304 10.9029C9.25304 10.6029 9.25304 10.1229 8.93304 9.83292L5.91804 7.15592C5.53504 6.81992 4.74304 6.92992 4.74304 7.76292V12.9629C4.74304 13.7969 5.62304 13.9829 6.13304 13.5029Z" fill="url(#paint7_linear_19_453)"/>
  <g filter="url(#filter2_f_19_453)">
    <path d="M26.49 5.65188C26.5232 5.57034 26.5836 5.50284 26.661 5.46091C26.7384 5.41899 26.8279 5.40523 26.9144 5.42199C27.0008 5.43876 27.0787 5.485 27.1348 5.55283C27.1909 5.62065 27.2217 5.70586 27.222 5.79388V8.03888L25.805 7.35188L26.49 5.65188Z" fill="url(#paint8_linear_19_453)"/>
  </g>
  <g filter="url(#filter3_f_19_453)">
    <path d="M5.44598 5.72705L8.82098 8.94705C9.57498 9.66505 9.58898 10.8651 8.85198 11.6021" stroke="#FFDF70" stroke-linecap="round"/>
  </g>
  <g filter="url(#filter4_f_19_453)">
    <path d="M14.805 20.6498L14.87 20.6348C15.3436 20.5248 15.8368 20.5299 16.308 20.6498C16.828 20.7478 17.14 21.3458 16.7 21.7758L16.15 22.3768C15.88 22.6468 15.286 22.6468 15.016 22.3768L14.473 21.7758C14.024 21.2678 14.305 20.7598 14.805 20.6498Z" fill="url(#paint9_linear_19_453)"/>
  </g>
  <path d="M15.226 20.207L15.291 20.192C15.7646 20.0815 16.2578 20.0867 16.729 20.207C17.25 20.305 17.561 20.902 17.121 21.332L16.571 21.934C16.301 22.204 15.707 22.204 15.437 21.934L14.895 21.332C14.445 20.824 14.727 20.316 15.227 20.207H15.226Z" fill="url(#paint10_radial_19_453)"/>
  <g filter="url(#filter5_f_19_453)">
    <path d="M16.27 21.015C16.6908 21.015 17.032 20.8924 17.032 20.741C17.032 20.5897 16.6908 20.467 16.27 20.467C15.8492 20.467 15.508 20.5897 15.508 20.741C15.508 20.8924 15.8492 21.015 16.27 21.015Z" fill="url(#paint11_linear_19_453)"/>
  </g>
  <g filter="url(#filter6_f_19_453)">
    <path d="M24.785 22.8918L28.59 21.0798" stroke="url(#paint12_linear_19_453)" stroke-width="1.2" stroke-miterlimit="10" stroke-linecap="round"/>
  </g>
  <g filter="url(#filter7_f_19_453)">
    <path d="M24.785 24.9238L26.712 26.2888" stroke="url(#paint13_linear_19_453)" stroke-width="1.2" stroke-miterlimit="10" stroke-linecap="round"/>
  </g>
  <path d="M25.566 22.5401L29.371 20.7271" stroke="url(#paint14_linear_19_453)" stroke-width="1.2" stroke-miterlimit="10" stroke-linecap="round"/>
  <g filter="url(#filter8_f_19_453)">
    <path d="M25.566 22.7099L29.371 20.8979" stroke="#F96F99" stroke-width="0.3" stroke-miterlimit="10" stroke-linecap="round"/>
  </g>
  <g filter="url(#filter9_f_19_453)">
    <path d="M29.6706 20.7341C29.7643 20.6948 29.8116 20.5944 29.7761 20.5098C29.7407 20.4253 29.636 20.3886 29.5422 20.4279C29.4485 20.4672 29.4013 20.5676 29.4367 20.6521C29.4722 20.7367 29.5769 20.7734 29.6706 20.7341Z" fill="#FFDD86"/>
  </g>
  <path d="M25.564 24.6699L29.365 26.4879" stroke="url(#paint15_linear_19_453)" stroke-width="1.2" stroke-miterlimit="10" stroke-linecap="round"/>
  <g filter="url(#filter10_f_19_453)">
    <path d="M25.498 24.55L29.3 26.368" stroke="#F96F99" stroke-width="0.3" stroke-miterlimit="10" stroke-linecap="round"/>
  </g>
  <g filter="url(#filter11_f_19_453)">
    <path d="M29.4613 26.5141C29.5508 26.5622 29.6586 26.5359 29.7021 26.4551C29.7455 26.3744 29.7082 26.2699 29.6187 26.2217C29.5293 26.1736 29.4215 26.2 29.378 26.2807C29.3346 26.3614 29.3719 26.4659 29.4613 26.5141Z" fill="#FFDD86"/>
  </g>
  <path d="M6.52799 24.6809L2.72699 26.4999" stroke="url(#paint16_linear_19_453)" stroke-width="1.2" stroke-miterlimit="10" stroke-linecap="round"/>
  <g filter="url(#filter12_f_19_453)">
    <path d="M6.59299 24.5601L2.79199 26.3801" stroke="#F96F99" stroke-width="0.3" stroke-miterlimit="10" stroke-linecap="round"/>
  </g>
  <g filter="url(#filter13_f_19_453)">
    <path d="M6.59083 24.6616C6.49503 24.6277 6.44214 24.5301 6.47271 24.4437C6.50328 24.3573 6.60572 24.3147 6.70153 24.3486C6.79733 24.3824 6.85022 24.48 6.81965 24.5664C6.78908 24.6528 6.68664 24.6954 6.59083 24.6616Z" fill="#FFDD86"/>
  </g>
  <path d="M6.54001 22.524L2.72601 20.73" stroke="url(#paint17_linear_19_453)" stroke-width="1.2" stroke-miterlimit="10" stroke-linecap="round"/>
  <g filter="url(#filter14_f_19_453)">
    <path d="M6.67399 22.4988L2.85999 20.7048" stroke="#F96F99" stroke-width="0.3" stroke-miterlimit="10" stroke-linecap="round"/>
  </g>
  <g filter="url(#filter15_f_19_453)">
    <path d="M6.59452 22.5597C6.56016 22.4641 6.60225 22.3614 6.68853 22.3304C6.77481 22.2994 6.87261 22.3518 6.90696 22.4474C6.94132 22.5431 6.89923 22.6457 6.81295 22.6767C6.72667 22.7077 6.62888 22.6553 6.59452 22.5597Z" fill="#FFDD86"/>
  </g>
  <path d="M20.418 23.0551C20.418 25.4951 18.436 27.3911 15.996 27.3911C13.556 27.3911 11.683 25.4481 11.683 23.0081C11.683 23.0081 13.488 25.1411 15.996 23.0081C18.348 25.0861 20.418 23.0551 20.418 23.0551Z" fill="url(#paint18_linear_19_453)"/>
  <g filter="url(#filter16_f_19_453)">
    <path d="M22.102 10.1021H26.687V24.2881H22.102V10.1021Z" fill="url(#paint19_linear_19_453)"/>
  </g>
  <path d="M25.833 13.5029L23.033 10.9029C22.9575 10.8357 22.897 10.7533 22.8556 10.6611C22.8142 10.5689 22.7928 10.469 22.7928 10.3679C22.7928 10.2668 22.8142 10.1669 22.8556 10.0747C22.897 9.9825 22.9575 9.90009 23.033 9.83292L26.048 7.15592C26.43 6.81992 27.223 6.92992 27.223 7.76292V12.9629C27.223 13.7969 26.343 13.9829 25.833 13.5029Z" fill="#FFB915"/>
  <path d="M25.833 13.5029L23.033 10.9029C22.9575 10.8357 22.897 10.7533 22.8556 10.6611C22.8142 10.5689 22.7928 10.469 22.7928 10.3679C22.7928 10.2668 22.8142 10.1669 22.8556 10.0747C22.897 9.9825 22.9575 9.90009 23.033 9.83292L26.048 7.15592C26.43 6.81992 27.223 6.92992 27.223 7.76292V12.9629C27.223 13.7969 26.343 13.9829 25.833 13.5029Z" fill="url(#paint20_linear_19_453)"/>
  <g filter="url(#filter17_f_19_453)">
    <path d="M26.634 7.36694L23.009 10.4919L26.555 13.3049L26.634 7.36694Z" fill="url(#paint21_radial_19_453)"/>
  </g>
  <g filter="url(#filter18_f_19_453)">
    <path d="M23.727 10.29L26.259 13.023" stroke="url(#paint22_linear_19_453)" stroke-width="0.5" stroke-linecap="round"/>
  </g>
  <g filter="url(#filter19_f_19_453)">
    <path d="M5.22302 7.5V13.407L8.69202 10.317L5.22302 7.5Z" fill="#FEB33E"/>
  </g>
  <g filter="url(#filter20_f_19_453)">
    <path d="M5.22302 7.72705V12.9141" stroke="#FFE7A3" stroke-width="0.15" stroke-linecap="round"/>
  </g>
  <g filter="url(#filter21_f_19_453)">
    <path d="M21.539 19.5939C21.6296 19.5939 21.703 19.4923 21.703 19.3669C21.703 19.2415 21.6296 19.1399 21.539 19.1399C21.4484 19.1399 21.375 19.2415 21.375 19.3669C21.375 19.4923 21.4484 19.5939 21.539 19.5939Z" fill="#715167"/>
  </g>
  <g filter="url(#filter22_f_19_453)">
    <path d="M18.942 21.524C18.8776 21.5373 18.8107 21.5329 18.7485 21.5112C18.6864 21.4896 18.6312 21.4515 18.589 21.401C17.789 20.465 16.511 18.648 16.371 16.719C16.082 14.227 18.934 13.258 20.129 15.016C20.231 15.166 20.359 15.368 20.457 15.551C20.535 15.699 20.734 15.771 20.882 15.694C21.114 15.574 21.403 15.44 21.598 15.383C23.248 14.895 25.34 16.852 23.465 19.102C22.7 20.154 20.167 21.262 18.942 21.524Z" fill="url(#paint23_linear_19_453)"/>
  </g>
  <g filter="url(#filter23_f_19_453)">
    <path d="M11.787 20.893C11.7464 20.945 11.6923 20.985 11.6307 21.0086C11.569 21.0323 11.502 21.0386 11.437 21.027C10.312 20.843 8.34003 20.323 7.09703 19.054C5.40603 17.47 6.83703 15.084 8.72903 15.611C8.88403 15.653 9.08302 15.716 9.25602 15.783C9.41202 15.843 9.61002 15.77 9.67402 15.616C9.76402 15.398 9.88403 15.144 9.98403 14.993C10.856 13.664 13.498 13.795 13.519 16.5C13.607 17.692 12.495 19.968 11.787 20.893Z" fill="url(#paint24_linear_19_453)"/>
  </g>
  <path d="M19.942 20.524C19.8776 20.5373 19.8107 20.5329 19.7485 20.5112C19.6864 20.4896 19.6312 20.4515 19.589 20.401C18.789 19.465 17.511 17.648 17.371 15.719C17.082 13.227 19.934 12.258 21.129 14.016C21.231 14.166 21.359 14.368 21.457 14.551C21.535 14.699 21.734 14.771 21.882 14.694C22.114 14.574 22.403 14.44 22.598 14.383C24.248 13.895 26.34 15.852 24.465 18.102C23.7 19.154 21.167 20.262 19.942 20.524Z" fill="url(#paint25_radial_19_453)"/>
  <path d="M19.942 20.524C19.8776 20.5373 19.8107 20.5329 19.7485 20.5112C19.6864 20.4896 19.6312 20.4515 19.589 20.401C18.789 19.465 17.511 17.648 17.371 15.719C17.082 13.227 19.934 12.258 21.129 14.016C21.231 14.166 21.359 14.368 21.457 14.551C21.535 14.699 21.734 14.771 21.882 14.694C22.114 14.574 22.403 14.44 22.598 14.383C24.248 13.895 26.34 15.852 24.465 18.102C23.7 19.154 21.167 20.262 19.942 20.524Z" fill="url(#paint26_radial_19_453)"/>
  <path d="M19.942 20.524C19.8776 20.5373 19.8107 20.5329 19.7485 20.5112C19.6864 20.4896 19.6312 20.4515 19.589 20.401C18.789 19.465 17.511 17.648 17.371 15.719C17.082 13.227 19.934 12.258 21.129 14.016C21.231 14.166 21.359 14.368 21.457 14.551C21.535 14.699 21.734 14.771 21.882 14.694C22.114 14.574 22.403 14.44 22.598 14.383C24.248 13.895 26.34 15.852 24.465 18.102C23.7 19.154 21.167 20.262 19.942 20.524Z" fill="url(#paint27_radial_19_453)"/>
  <path d="M19.942 20.524C19.8776 20.5373 19.8107 20.5329 19.7485 20.5112C19.6864 20.4896 19.6312 20.4515 19.589 20.401C18.789 19.465 17.511 17.648 17.371 15.719C17.082 13.227 19.934 12.258 21.129 14.016C21.231 14.166 21.359 14.368 21.457 14.551C21.535 14.699 21.734 14.771 21.882 14.694C22.114 14.574 22.403 14.44 22.598 14.383C24.248 13.895 26.34 15.852 24.465 18.102C23.7 19.154 21.167 20.262 19.942 20.524Z" fill="url(#paint28_radial_19_453)"/>
  <g filter="url(#filter24_f_19_453)">
    <path d="M20.613 18.0309L21.379 15.3749C21.254 14.7969 20.785 14.0309 20.348 13.7969L19.332 14.9069L20.613 18.0309Z" fill="url(#paint29_linear_19_453)"/>
  </g>
  <g filter="url(#filter25_f_19_453)">
    <path d="M22.88 16.6329L24.293 15.1169C24.706 15.4169 24.863 15.9299 24.863 16.1719L22.879 16.6319L22.88 16.6329Z" fill="url(#paint30_linear_19_453)"/>
  </g>
  <g filter="url(#filter26_f_19_453)">
    <path d="M23.16 14.941C23.3716 14.941 23.543 14.8308 23.543 14.695C23.543 14.5591 23.3716 14.449 23.16 14.449C22.9485 14.449 22.777 14.5591 22.777 14.695C22.777 14.8308 22.9485 14.941 23.16 14.941Z" fill="url(#paint31_linear_19_453)"/>
  </g>
  <g filter="url(#filter27_f_19_453)">
    <path d="M21.277 15.313L20.629 17.234" stroke="url(#paint32_linear_19_453)" stroke-width="0.2" stroke-linecap="round"/>
  </g>
  <g filter="url(#filter28_f_19_453)">
    <path d="M21.817 15.1718L20.832 17.9058L23.863 15.1718C22.851 14.5838 22.077 14.9268 21.817 15.1718Z" fill="url(#paint33_linear_19_453)"/>
  </g>
  <g filter="url(#filter29_f_19_453)">
    <path d="M20.34 13.797L19.113 15.062L18.379 14.047C19.051 13.273 20.085 13.594 20.34 13.797Z" fill="url(#paint34_linear_19_453)"/>
  </g>
  <path d="M12.058 20.5288C12.1225 20.5422 12.1893 20.5378 12.2515 20.5161C12.3137 20.4945 12.3688 20.4563 12.411 20.4058C13.211 19.4698 14.489 17.6528 14.629 15.7238C14.918 13.2318 12.066 12.2628 10.871 14.0208C10.7526 14.1934 10.6431 14.372 10.543 14.5558C10.465 14.7038 10.266 14.7758 10.118 14.6988C9.88826 14.5758 9.64879 14.4717 9.40201 14.3878C7.75201 13.8998 5.66001 15.8568 7.53501 18.1068C8.30001 19.1588 10.833 20.2668 12.058 20.5288Z" fill="url(#paint35_radial_19_453)"/>
  <path d="M12.058 20.5288C12.1225 20.5422 12.1893 20.5378 12.2515 20.5161C12.3137 20.4945 12.3688 20.4563 12.411 20.4058C13.211 19.4698 14.489 17.6528 14.629 15.7238C14.918 13.2318 12.066 12.2628 10.871 14.0208C10.7526 14.1934 10.6431 14.372 10.543 14.5558C10.465 14.7038 10.266 14.7758 10.118 14.6988C9.88826 14.5758 9.64879 14.4717 9.40201 14.3878C7.75201 13.8998 5.66001 15.8568 7.53501 18.1068C8.30001 19.1588 10.833 20.2668 12.058 20.5288Z" fill="url(#paint36_radial_19_453)"/>
  <path d="M12.058 20.5288C12.1225 20.5422 12.1893 20.5378 12.2515 20.5161C12.3137 20.4945 12.3688 20.4563 12.411 20.4058C13.211 19.4698 14.489 17.6528 14.629 15.7238C14.918 13.2318 12.066 12.2628 10.871 14.0208C10.7526 14.1934 10.6431 14.372 10.543 14.5558C10.465 14.7038 10.266 14.7758 10.118 14.6988C9.88826 14.5758 9.64879 14.4717 9.40201 14.3878C7.75201 13.8998 5.66001 15.8568 7.53501 18.1068C8.30001 19.1588 10.833 20.2668 12.058 20.5288Z" fill="url(#paint37_radial_19_453)"/>
  <path d="M12.058 20.5288C12.1225 20.5422 12.1893 20.5378 12.2515 20.5161C12.3137 20.4945 12.3688 20.4563 12.411 20.4058C13.211 19.4698 14.489 17.6528 14.629 15.7238C14.918 13.2318 12.066 12.2628 10.871 14.0208C10.7526 14.1934 10.6431 14.372 10.543 14.5558C10.465 14.7038 10.266 14.7758 10.118 14.6988C9.88826 14.5758 9.64879 14.4717 9.40201 14.3878C7.75201 13.8998 5.66001 15.8568 7.53501 18.1068C8.30001 19.1588 10.833 20.2668 12.058 20.5288Z" fill="url(#paint38_radial_19_453)"/>
  <g filter="url(#filter30_f_19_453)">
    <path d="M12.542 13.7764C12.331 13.7621 12.1673 13.6406 12.1765 13.505C12.1858 13.3695 12.3643 13.2712 12.5753 13.2856C12.7864 13.2999 12.95 13.4214 12.9408 13.557C12.9316 13.6925 12.753 13.7908 12.542 13.7764Z" fill="url(#paint39_linear_19_453)"/>
  </g>
  <g filter="url(#filter31_f_19_453)">
    <path d="M12.762 14.93L13.481 13.79C13.871 14.055 14.153 14.54 14.153 15.117L12.965 15.539L12.762 14.929V14.93Z" fill="url(#paint40_linear_19_453)"/>
  </g>
  <g filter="url(#filter32_f_19_453)">
    <path d="M10.418 15.8199L11.231 17.8669L8.49603 15.8199C9.10603 14.5549 10.231 15.2099 10.418 15.8199Z" fill="url(#paint41_linear_19_453)"/>
  </g>
  <g filter="url(#filter33_f_19_453)">
    <path d="M13.98 15.5859C13.918 16.1279 13.53 17.6199 12.48 19.2579" stroke="url(#paint42_linear_19_453)" stroke-width="0.25" stroke-linecap="round"/>
  </g>
  <defs>
    <filter id="filter0_f_19_453" x="3.55402" y="20.3201" width="5.72699" height="6.698" filterUnits="userSpaceOnUse" color-interpolation-filters="sRGB">
      <feFlood flood-opacity="0" result="BackgroundImageFix"/>
      <feBlend mode="normal" in="SourceGraphic" in2="BackgroundImageFix" result="shape"/>
      <feGaussianBlur stdDeviation="0.75" result="effect1_foregroundBlur_19_453"/>
    </filter>
    <filter id="filter1_f_19_453" x="19.0974" y="4.51855" width="9.00946" height="11.6355" filterUnits="userSpaceOnUse" color-interpolation-filters="sRGB">
      <feFlood flood-opacity="0" result="BackgroundImageFix"/>
      <feBlend mode="normal" in="SourceGraphic" in2="BackgroundImageFix" result="shape"/>
      <feGaussianBlur stdDeviation="0.5" result="effect1_foregroundBlur_19_453"/>
    </filter>
    <filter id="filter2_f_19_453" x="24.805" y="4.41504" width="3.41699" height="4.62378" filterUnits="userSpaceOnUse" color-interpolation-filters="sRGB">
      <feFlood flood-opacity="0" result="BackgroundImageFix"/>
      <feBlend mode="normal" in="SourceGraphic" in2="BackgroundImageFix" result="shape"/>
      <feGaussianBlur stdDeviation="0.5" result="effect1_foregroundBlur_19_453"/>
    </filter>
    <filter id="filter3_f_19_453" x="2.94598" y="3.22705" width="8.94977" height="10.875" filterUnits="userSpaceOnUse" color-interpolation-filters="sRGB">
      <feFlood flood-opacity="0" result="BackgroundImageFix"/>
      <feBlend mode="normal" in="SourceGraphic" in2="BackgroundImageFix" result="shape"/>
      <feGaussianBlur stdDeviation="1" result="effect1_foregroundBlur_19_453"/>
    </filter>
    <filter id="filter4_f_19_453" x="13.7479" y="20.0559" width="3.66156" height="3.02344" filterUnits="userSpaceOnUse" color-interpolation-filters="sRGB">
      <feFlood flood-opacity="0" result="BackgroundImageFix"/>
      <feBlend mode="normal" in="SourceGraphic" in2="BackgroundImageFix" result="shape"/>
      <feGaussianBlur stdDeviation="0.25" result="effect1_foregroundBlur_19_453"/>
    </filter>
    <filter id="filter5_f_19_453" x="14.908" y="19.867" width="2.72399" height="1.7481" filterUnits="userSpaceOnUse" color-interpolation-filters="sRGB">
      <feFlood flood-opacity="0" result="BackgroundImageFix"/>
      <feBlend mode="normal" in="SourceGraphic" in2="BackgroundImageFix" result="shape"/>
      <feGaussianBlur stdDeviation="0.3" result="effect1_foregroundBlur_19_453"/>
    </filter>
    <filter id="filter6_f_19_453" x="23.6849" y="19.9797" width="6.00531" height="4.01221" filterUnits="userSpaceOnUse" color-interpolation-filters="sRGB">
      <feFlood flood-opacity="0" result="BackgroundImageFix"/>
      <feBlend mode="normal" in="SourceGraphic" in2="BackgroundImageFix" result="shape"/>
      <feGaussianBlur stdDeviation="0.25" result="effect1_foregroundBlur_19_453"/>
    </filter>
    <filter id="filter7_f_19_453" x="23.685" y="23.8237" width="4.12708" height="3.56519" filterUnits="userSpaceOnUse" color-interpolation-filters="sRGB">
      <feFlood flood-opacity="0" result="BackgroundImageFix"/>
      <feBlend mode="normal" in="SourceGraphic" in2="BackgroundImageFix" result="shape"/>
      <feGaussianBlur stdDeviation="0.25" result="effect1_foregroundBlur_19_453"/>
    </filter>
    <filter id="filter8_f_19_453" x="24.916" y="20.2478" width="5.10504" height="3.11206" filterUnits="userSpaceOnUse" color-interpolation-filters="sRGB">
      <feFlood flood-opacity="0" result="BackgroundImageFix"/>
      <feBlend mode="normal" in="SourceGraphic" in2="BackgroundImageFix" result="shape"/>
      <feGaussianBlur stdDeviation="0.25" result="effect1_foregroundBlur_19_453"/>
    </filter>
    <filter id="filter9_f_19_453" x="28.925" y="19.9121" width="1.36292" height="1.33765" filterUnits="userSpaceOnUse" color-interpolation-filters="sRGB">
      <feFlood flood-opacity="0" result="BackgroundImageFix"/>
      <feBlend mode="normal" in="SourceGraphic" in2="BackgroundImageFix" result="shape"/>
      <feGaussianBlur stdDeviation="0.25" result="effect1_foregroundBlur_19_453"/>
    </filter>
    <filter id="filter10_f_19_453" x="24.848" y="23.8999" width="5.10205" height="3.11816" filterUnits="userSpaceOnUse" color-interpolation-filters="sRGB">
      <feFlood flood-opacity="0" result="BackgroundImageFix"/>
      <feBlend mode="normal" in="SourceGraphic" in2="BackgroundImageFix" result="shape"/>
      <feGaussianBlur stdDeviation="0.25" result="effect1_foregroundBlur_19_453"/>
    </filter>
    <filter id="filter11_f_19_453" x="28.8599" y="25.6978" width="1.36035" height="1.34033" filterUnits="userSpaceOnUse" color-interpolation-filters="sRGB">
      <feFlood flood-opacity="0" result="BackgroundImageFix"/>
      <feBlend mode="normal" in="SourceGraphic" in2="BackgroundImageFix" result="shape"/>
      <feGaussianBlur stdDeviation="0.25" result="effect1_foregroundBlur_19_453"/>
    </filter>
    <filter id="filter12_f_19_453" x="2.14197" y="23.9099" width="5.10107" height="3.12012" filterUnits="userSpaceOnUse" color-interpolation-filters="sRGB">
      <feFlood flood-opacity="0" result="BackgroundImageFix"/>
      <feBlend mode="normal" in="SourceGraphic" in2="BackgroundImageFix" result="shape"/>
      <feGaussianBlur stdDeviation="0.25" result="effect1_foregroundBlur_19_453"/>
    </filter>
    <filter id="filter13_f_19_453" x="5.96405" y="23.8369" width="1.36426" height="1.33618" filterUnits="userSpaceOnUse" color-interpolation-filters="sRGB">
      <feFlood flood-opacity="0" result="BackgroundImageFix"/>
      <feBlend mode="normal" in="SourceGraphic" in2="BackgroundImageFix" result="shape"/>
      <feGaussianBlur stdDeviation="0.25" result="effect1_foregroundBlur_19_453"/>
    </filter>
    <filter id="filter14_f_19_453" x="2.20996" y="20.0547" width="5.11407" height="3.09424" filterUnits="userSpaceOnUse" color-interpolation-filters="sRGB">
      <feFlood flood-opacity="0" result="BackgroundImageFix"/>
      <feBlend mode="normal" in="SourceGraphic" in2="BackgroundImageFix" result="shape"/>
      <feGaussianBlur stdDeviation="0.25" result="effect1_foregroundBlur_19_453"/>
    </filter>
    <filter id="filter15_f_19_453" x="6.08252" y="21.8215" width="1.33643" height="1.36401" filterUnits="userSpaceOnUse" color-interpolation-filters="sRGB">
      <feFlood flood-opacity="0" result="BackgroundImageFix"/>
      <feBlend mode="normal" in="SourceGraphic" in2="BackgroundImageFix" result="shape"/>
      <feGaussianBlur stdDeviation="0.25" result="effect1_foregroundBlur_19_453"/>
    </filter>
    <filter id="filter16_f_19_453" x="18.102" y="6.10205" width="12.585" height="22.186" filterUnits="userSpaceOnUse" color-interpolation-filters="sRGB">
      <feFlood flood-opacity="0" result="BackgroundImageFix"/>
      <feBlend mode="normal" in="SourceGraphic" in2="BackgroundImageFix" result="shape"/>
      <feGaussianBlur stdDeviation="2" result="effect1_foregroundBlur_19_453"/>
    </filter>
    <filter id="filter17_f_19_453" x="22.409" y="6.76694" width="4.825" height="7.13799" filterUnits="userSpaceOnUse" color-interpolation-filters="sRGB">
      <feFlood flood-opacity="0" result="BackgroundImageFix"/>
      <feBlend mode="normal" in="SourceGraphic" in2="BackgroundImageFix" result="shape"/>
      <feGaussianBlur stdDeviation="0.3" result="effect1_foregroundBlur_19_453"/>
    </filter>
    <filter id="filter18_f_19_453" x="22.727" y="9.29004" width="4.53198" height="4.73291" filterUnits="userSpaceOnUse" color-interpolation-filters="sRGB">
      <feFlood flood-opacity="0" result="BackgroundImageFix"/>
      <feBlend mode="normal" in="SourceGraphic" in2="BackgroundImageFix" result="shape"/>
      <feGaussianBlur stdDeviation="0.375" result="effect1_foregroundBlur_19_453"/>
    </filter>
    <filter id="filter19_f_19_453" x="4.72302" y="7" width="4.46899" height="6.90698" filterUnits="userSpaceOnUse" color-interpolation-filters="sRGB">
      <feFlood flood-opacity="0" result="BackgroundImageFix"/>
      <feBlend mode="normal" in="SourceGraphic" in2="BackgroundImageFix" result="shape"/>
      <feGaussianBlur stdDeviation="0.25" result="effect1_foregroundBlur_19_453"/>
    </filter>
    <filter id="filter20_f_19_453" x="4.64801" y="7.1521" width="1.15002" height="6.33691" filterUnits="userSpaceOnUse" color-interpolation-filters="sRGB">
      <feFlood flood-opacity="0" result="BackgroundImageFix"/>
      <feBlend mode="normal" in="SourceGraphic" in2="BackgroundImageFix" result="shape"/>
      <feGaussianBlur stdDeviation="0.25" result="effect1_foregroundBlur_19_453"/>
    </filter>
    <filter id="filter21_f_19_453" x="20.975" y="18.7399" width="1.128" height="1.2541" filterUnits="userSpaceOnUse" color-interpolation-filters="sRGB">
      <feFlood flood-opacity="0" result="BackgroundImageFix"/>
      <feBlend mode="normal" in="SourceGraphic" in2="BackgroundImageFix" result="shape"/>
      <feGaussianBlur stdDeviation="0.2" result="effect1_foregroundBlur_19_453"/>
    </filter>
    <filter id="filter22_f_19_453" x="15.3506" y="13.1206" width="9.85321" height="9.41089" filterUnits="userSpaceOnUse" color-interpolation-filters="sRGB">
      <feFlood flood-opacity="0" result="BackgroundImageFix"/>
      <feBlend mode="normal" in="SourceGraphic" in2="BackgroundImageFix" result="shape"/>
      <feGaussianBlur stdDeviation="0.5" result="effect1_foregroundBlur_19_453"/>
    </filter>
    <filter id="filter23_f_19_453" x="5.34515" y="13.1702" width="9.17877" height="8.86255" filterUnits="userSpaceOnUse" color-interpolation-filters="sRGB">
      <feFlood flood-opacity="0" result="BackgroundImageFix"/>
      <feBlend mode="normal" in="SourceGraphic" in2="BackgroundImageFix" result="shape"/>
      <feGaussianBlur stdDeviation="0.5" result="effect1_foregroundBlur_19_453"/>
    </filter>
    <filter id="filter24_f_19_453" x="18.832" y="13.2969" width="3.047" height="5.23389" filterUnits="userSpaceOnUse" color-interpolation-filters="sRGB">
      <feFlood flood-opacity="0" result="BackgroundImageFix"/>
      <feBlend mode="normal" in="SourceGraphic" in2="BackgroundImageFix" result="shape"/>
      <feGaussianBlur stdDeviation="0.25" result="effect1_foregroundBlur_19_453"/>
    </filter>
    <filter id="filter25_f_19_453" x="22.379" y="14.6169" width="2.98401" height="2.51611" filterUnits="userSpaceOnUse" color-interpolation-filters="sRGB">
      <feFlood flood-opacity="0" result="BackgroundImageFix"/>
      <feBlend mode="normal" in="SourceGraphic" in2="BackgroundImageFix" result="shape"/>
      <feGaussianBlur stdDeviation="0.25" result="effect1_foregroundBlur_19_453"/>
    </filter>
    <filter id="filter26_f_19_453" x="22.277" y="13.949" width="1.76599" height="1.49194" filterUnits="userSpaceOnUse" color-interpolation-filters="sRGB">
      <feFlood flood-opacity="0" result="BackgroundImageFix"/>
      <feBlend mode="normal" in="SourceGraphic" in2="BackgroundImageFix" result="shape"/>
      <feGaussianBlur stdDeviation="0.25" result="effect1_foregroundBlur_19_453"/>
    </filter>
    <filter id="filter27_f_19_453" x="20.279" y="14.9629" width="1.34808" height="2.62109" filterUnits="userSpaceOnUse" color-interpolation-filters="sRGB">
      <feFlood flood-opacity="0" result="BackgroundImageFix"/>
      <feBlend mode="normal" in="SourceGraphic" in2="BackgroundImageFix" result="shape"/>
      <feGaussianBlur stdDeviation="0.125" result="effect1_foregroundBlur_19_453"/>
    </filter>
    <filter id="filter28_f_19_453" x="20.332" y="14.3472" width="4.03101" height="4.05859" filterUnits="userSpaceOnUse" color-interpolation-filters="sRGB">
      <feFlood flood-opacity="0" result="BackgroundImageFix"/>
      <feBlend mode="normal" in="SourceGraphic" in2="BackgroundImageFix" result="shape"/>
      <feGaussianBlur stdDeviation="0.25" result="effect1_foregroundBlur_19_453"/>
    </filter>
    <filter id="filter29_f_19_453" x="17.879" y="13.0552" width="2.961" height="2.50684" filterUnits="userSpaceOnUse" color-interpolation-filters="sRGB">
      <feFlood flood-opacity="0" result="BackgroundImageFix"/>
      <feBlend mode="normal" in="SourceGraphic" in2="BackgroundImageFix" result="shape"/>
      <feGaussianBlur stdDeviation="0.25" result="effect1_foregroundBlur_19_453"/>
    </filter>
    <filter id="filter30_f_19_453" x="11.6761" y="12.7842" width="1.76501" height="1.49365" filterUnits="userSpaceOnUse" color-interpolation-filters="sRGB">
      <feFlood flood-opacity="0" result="BackgroundImageFix"/>
      <feBlend mode="normal" in="SourceGraphic" in2="BackgroundImageFix" result="shape"/>
      <feGaussianBlur stdDeviation="0.25" result="effect1_foregroundBlur_19_453"/>
    </filter>
    <filter id="filter31_f_19_453" x="12.362" y="13.39" width="2.19099" height="2.54902" filterUnits="userSpaceOnUse" color-interpolation-filters="sRGB">
      <feFlood flood-opacity="0" result="BackgroundImageFix"/>
      <feBlend mode="normal" in="SourceGraphic" in2="BackgroundImageFix" result="shape"/>
      <feGaussianBlur stdDeviation="0.2" result="effect1_foregroundBlur_19_453"/>
    </filter>
    <filter id="filter32_f_19_453" x="8.19603" y="14.7964" width="3.33499" height="3.37051" filterUnits="userSpaceOnUse" color-interpolation-filters="sRGB">
      <feFlood flood-opacity="0" result="BackgroundImageFix"/>
      <feBlend mode="normal" in="SourceGraphic" in2="BackgroundImageFix" result="shape"/>
      <feGaussianBlur stdDeviation="0.15" result="effect1_foregroundBlur_19_453"/>
    </filter>
    <filter id="filter33_f_19_453" x="11.855" y="14.9609" width="2.75" height="4.92212" filterUnits="userSpaceOnUse" color-interpolation-filters="sRGB">
      <feFlood flood-opacity="0" result="BackgroundImageFix"/>
      <feBlend mode="normal" in="SourceGraphic" in2="BackgroundImageFix" result="shape"/>
      <feGaussianBlur stdDeviation="0.25" result="effect1_foregroundBlur_19_453"/>
    </filter>
    <linearGradient id="paint0_linear_19_453" x1="7.907" y1="1.34995" x2="7.907" y2="30.9899" gradientUnits="userSpaceOnUse">
      <stop offset="0.288" stop-color="#F2CC26"/>
      <stop offset="0.762" stop-color="#E99E20"/>
      <stop offset="0.993" stop-color="#E3821D"/>
      <stop offset="1" stop-color="#E3801D"/>
    </linearGradient>
    <linearGradient id="paint1_linear_19_453" x1="8.831" y1="12.0329" x2="1.17" y2="12.0329" gradientUnits="userSpaceOnUse">
      <stop stop-color="#E99E20" stop-opacity="0"/>
      <stop offset="0.993" stop-color="#E3821D"/>
      <stop offset="1" stop-color="#E3801D"/>
    </linearGradient>
    <linearGradient id="paint2_linear_19_453" x1="26.791" y1="12.0329" x2="30.245" y2="12.0329" gradientUnits="userSpaceOnUse">
      <stop stop-color="#E99E20" stop-opacity="0"/>
      <stop offset="0.993" stop-color="#E3821D"/>
      <stop offset="1" stop-color="#E3801D"/>
    </linearGradient>
    <linearGradient id="paint3_linear_19_453" x1="16.001" y1="-1.59505" x2="16" y2="30.9899" gradientUnits="userSpaceOnUse">
      <stop offset="0.771" stop-color="#F59639" stop-opacity="0"/>
      <stop offset="1" stop-color="#FF63C4"/>
    </linearGradient>
    <linearGradient id="paint4_linear_19_453" x1="16" y1="11.2519" x2="16" y2="32.4749" gradientUnits="userSpaceOnUse">
      <stop offset="0.854" stop-color="white" stop-opacity="0"/>
      <stop offset="0.985" stop-color="white"/>
    </linearGradient>
    <radialGradient id="paint5_radial_19_453" cx="0" cy="0" r="1" gradientUnits="userSpaceOnUse" gradientTransform="translate(22.175 4.47695) rotate(55.4546) scale(5.37103 10.6707)">
      <stop stop-color="#FFA720"/>
      <stop offset="0.921" stop-color="#FFA720" stop-opacity="0"/>
    </radialGradient>
    <linearGradient id="paint6_linear_19_453" x1="21.908" y1="6.85194" x2="28.165" y2="13.6949" gradientUnits="userSpaceOnUse">
      <stop stop-color="#FFA720"/>
      <stop offset="1" stop-color="#FFA720" stop-opacity="0"/>
    </linearGradient>
    <linearGradient id="paint7_linear_19_453" x1="10.602" y1="10.6169" x2="4.74304" y2="10.0699" gradientUnits="userSpaceOnUse">
      <stop offset="0.437" stop-color="#ED8C1B"/>
      <stop offset="1" stop-color="#FFB03A"/>
    </linearGradient>
    <linearGradient id="paint8_linear_19_453" x1="27.04" y1="4.96088" x2="26.444" y2="7.30188" gradientUnits="userSpaceOnUse">
      <stop offset="0.286" stop-color="#FFE792"/>
      <stop offset="1" stop-color="#FFDD65" stop-opacity="0"/>
    </linearGradient>
    <linearGradient id="paint9_linear_19_453" x1="15.751" y1="22.3508" x2="15.079" y2="23.4448" gradientUnits="userSpaceOnUse">
      <stop stop-color="#E3900E"/>
      <stop offset="1" stop-color="#EA9D26" stop-opacity="0"/>
    </linearGradient>
    <radialGradient id="paint10_radial_19_453" cx="0" cy="0" r="1" gradientUnits="userSpaceOnUse" gradientTransform="translate(16.446 21.18) rotate(-153.246) scale(2.11729 2.1298)">
      <stop stop-color="#EA088B"/>
      <stop offset="1" stop-color="#E61E27"/>
    </radialGradient>
    <linearGradient id="paint11_linear_19_453" x1="17.204" y1="20.741" x2="15.68" y2="20.741" gradientUnits="userSpaceOnUse">
      <stop stop-color="white" stop-opacity="0.9"/>
      <stop offset="1" stop-color="white" stop-opacity="0"/>
    </linearGradient>
    <linearGradient id="paint12_linear_19_453" x1="24.29" y1="23.2358" x2="28.024" y2="21.3198" gradientUnits="userSpaceOnUse">
      <stop stop-color="#E88105"/>
      <stop offset="1" stop-color="#E37D02" stop-opacity="0"/>
    </linearGradient>
    <linearGradient id="paint13_linear_19_453" x1="24.29" y1="24.5798" x2="28.024" y2="26.4948" gradientUnits="userSpaceOnUse">
      <stop offset="0.286" stop-color="#DE7D07"/>
      <stop offset="0.818" stop-color="#E37D02" stop-opacity="0"/>
    </linearGradient>
    <linearGradient id="paint14_linear_19_453" x1="25.29" y1="22.9451" x2="29.371" y2="21.0081" gradientUnits="userSpaceOnUse">
      <stop offset="0.156" stop-color="#D64A38"/>
      <stop offset="1" stop-color="#FB7425"/>
    </linearGradient>
    <linearGradient id="paint15_linear_19_453" x1="25.074" y1="24.7099" x2="29.146" y2="26.6649" gradientUnits="userSpaceOnUse">
      <stop offset="0.156" stop-color="#D64A38"/>
      <stop offset="1" stop-color="#FB7425"/>
    </linearGradient>
    <linearGradient id="paint16_linear_19_453" x1="7.01799" y1="24.7209" x2="2.94499" y2="26.6769" gradientUnits="userSpaceOnUse">
      <stop offset="0.156" stop-color="#D64A38"/>
      <stop offset="1" stop-color="#FB7425"/>
    </linearGradient>
    <linearGradient id="paint17_linear_19_453" x1="6.81801" y1="22.929" x2="2.72801" y2="21.012" gradientUnits="userSpaceOnUse">
      <stop offset="0.156" stop-color="#D64A38"/>
      <stop offset="1" stop-color="#FB7425"/>
    </linearGradient>
    <linearGradient id="paint18_linear_19_453" x1="16.047" y1="27.5231" x2="16.047" y2="23.1001" gradientUnits="userSpaceOnUse">
      <stop stop-color="#E61E27"/>
      <stop offset="1" stop-color="#672A7A"/>
    </linearGradient>
    <linearGradient id="paint19_linear_19_453" x1="23.352" y1="10.8381" x2="22.956" y2="22.8891" gradientUnits="userSpaceOnUse">
      <stop offset="0.548" stop-color="#FFDD65"/>
      <stop offset="1" stop-color="#FFDD65" stop-opacity="0"/>
    </linearGradient>
    <linearGradient id="paint20_linear_19_453" x1="26.54" y1="15.5079" x2="25.29" y2="12.0389" gradientUnits="userSpaceOnUse">
      <stop stop-color="#EF8A47"/>
      <stop offset="1" stop-color="#EF8A47" stop-opacity="0"/>
    </linearGradient>
    <radialGradient id="paint21_radial_19_453" cx="0" cy="0" r="1" gradientUnits="userSpaceOnUse" gradientTransform="translate(22.868 7.77294) rotate(55.7389) scale(7.82686 9.38425)">
      <stop stop-color="#FFDF70"/>
      <stop offset="1" stop-color="#FFDF70" stop-opacity="0"/>
    </radialGradient>
    <linearGradient id="paint22_linear_19_453" x1="25.055" y1="10.477" x2="25.055" y2="12.82" gradientUnits="userSpaceOnUse">
      <stop offset="0.432" stop-color="#FFE7A3"/>
      <stop offset="1" stop-color="#FFDF83" stop-opacity="0"/>
    </linearGradient>
    <linearGradient id="paint23_linear_19_453" x1="18.625" y1="20" x2="14.688" y2="24.938" gradientUnits="userSpaceOnUse">
      <stop stop-color="#D68406"/>
      <stop offset="1" stop-color="#DC8C10" stop-opacity="0"/>
    </linearGradient>
    <linearGradient id="paint24_linear_19_453" x1="10.644" y1="20.022" x2="10.815" y2="25.852" gradientUnits="userSpaceOnUse">
      <stop stop-color="#DA8503"/>
      <stop offset="1" stop-color="#DC8C10" stop-opacity="0"/>
    </linearGradient>
    <radialGradient id="paint25_radial_19_453" cx="0" cy="0" r="1" gradientUnits="userSpaceOnUse" gradientTransform="translate(20.613 14.719) rotate(99.5571) scale(6.21121 7.16765)">
      <stop stop-color="#F12E52"/>
      <stop offset="0.596" stop-color="#FF3B79"/>
      <stop offset="1" stop-color="#FF4EC6"/>
    </radialGradient>
    <radialGradient id="paint26_radial_19_453" cx="0" cy="0" r="1" gradientUnits="userSpaceOnUse" gradientTransform="translate(20.583 16.344) rotate(58.459) scale(5.31673 8.38157)">
      <stop offset="0.635" stop-color="#FFA9BD" stop-opacity="0"/>
      <stop offset="0.834" stop-color="#FFA9BD"/>
    </radialGradient>
    <radialGradient id="paint27_radial_19_453" cx="0" cy="0" r="1" gradientUnits="userSpaceOnUse" gradientTransform="translate(22.2081 16.5623) rotate(154.537) scale(5.37886 13.2766)">
      <stop offset="0.767" stop-color="#FFA9BD" stop-opacity="0"/>
      <stop offset="0.933" stop-color="#FFA9BD"/>
    </radialGradient>
    <radialGradient id="paint28_radial_19_453" cx="0" cy="0" r="1" gradientUnits="userSpaceOnUse" gradientTransform="translate(20.582 17.406) rotate(-140.401) scale(6.1038 9.03079)">
      <stop offset="0.649" stop-color="#FFA9BD" stop-opacity="0"/>
      <stop offset="0.91" stop-color="#FFA9BD"/>
    </radialGradient>
    <linearGradient id="paint29_linear_19_453" x1="21.942" y1="15.9999" x2="18.988" y2="11.9839" gradientUnits="userSpaceOnUse">
      <stop stop-color="#FF7D9C"/>
      <stop offset="1" stop-color="#F9698B" stop-opacity="0"/>
    </linearGradient>
    <linearGradient id="paint30_linear_19_453" x1="24.41" y1="15.3749" x2="23.239" y2="15.1599" gradientUnits="userSpaceOnUse">
      <stop stop-color="#FF7D9C"/>
      <stop offset="1" stop-color="#F9698B" stop-opacity="0"/>
    </linearGradient>
    <linearGradient id="paint31_linear_19_453" x1="23.309" y1="14.355" x2="22.83" y2="14.406" gradientUnits="userSpaceOnUse">
      <stop stop-color="#FF7D9C"/>
      <stop offset="1" stop-color="#F9698B" stop-opacity="0"/>
    </linearGradient>
    <linearGradient id="paint32_linear_19_453" x1="21.277" y1="15.219" x2="20.629" y2="17.531" gradientUnits="userSpaceOnUse">
      <stop stop-color="#FF99B1"/>
      <stop offset="1" stop-color="#FF8AA6" stop-opacity="0"/>
    </linearGradient>
    <linearGradient id="paint33_linear_19_453" x1="21.145" y1="16.8588" x2="22.846" y2="14.2798" gradientUnits="userSpaceOnUse">
      <stop stop-color="#FF365B"/>
      <stop offset="1" stop-color="#E72044"/>
    </linearGradient>
    <linearGradient id="paint34_linear_19_453" x1="18.55" y1="14.352" x2="19.083" y2="13.19" gradientUnits="userSpaceOnUse">
      <stop stop-color="#FF365B"/>
      <stop offset="1" stop-color="#E72044"/>
    </linearGradient>
    <radialGradient id="paint35_radial_19_453" cx="0" cy="0" r="1" gradientUnits="userSpaceOnUse" gradientTransform="translate(11.8714 14.9759) rotate(106.617) scale(6.22887 7.18803)">
      <stop offset="0.019" stop-color="#F12E52"/>
      <stop offset="0.596" stop-color="#FF3B79"/>
      <stop offset="1" stop-color="#FF4EC6"/>
    </radialGradient>
    <radialGradient id="paint36_radial_19_453" cx="0" cy="0" r="1" gradientUnits="userSpaceOnUse" gradientTransform="translate(11.418 16.3488) rotate(121.541) scale(5.31673 8.38157)">
      <stop offset="0.635" stop-color="#FFA9BD" stop-opacity="0"/>
      <stop offset="0.834" stop-color="#FFA9BD"/>
    </radialGradient>
    <radialGradient id="paint37_radial_19_453" cx="0" cy="0" r="1" gradientUnits="userSpaceOnUse" gradientTransform="translate(9.79301 16.5678) rotate(25.4627) scale(5.37886 13.2766)">
      <stop offset="0.767" stop-color="#FFA9BD" stop-opacity="0"/>
      <stop offset="0.933" stop-color="#FFA9BD"/>
    </radialGradient>
    <radialGradient id="paint38_radial_19_453" cx="0" cy="0" r="1" gradientUnits="userSpaceOnUse" gradientTransform="translate(11.418 17.4108) rotate(-39.599) scale(6.1038 9.03079)">
      <stop offset="0.649" stop-color="#FFA9BD" stop-opacity="0"/>
      <stop offset="0.91" stop-color="#FFA9BD"/>
    </radialGradient>
    <linearGradient id="paint39_linear_19_453" x1="12.0353" y1="13.4012" x2="12.5097" y2="13.4846" gradientUnits="userSpaceOnUse">
      <stop stop-color="#FFAABE"/>
      <stop offset="1" stop-color="#F9698B" stop-opacity="0"/>
    </linearGradient>
    <linearGradient id="paint40_linear_19_453" x1="14.012" y1="13.898" x2="11.479" y2="14.693" gradientUnits="userSpaceOnUse">
      <stop stop-color="#FF7D9C"/>
      <stop offset="1" stop-color="#F9698B" stop-opacity="0"/>
    </linearGradient>
    <linearGradient id="paint41_linear_19_453" x1="10.965" y1="16.6479" x2="8.80303" y2="15.0899" gradientUnits="userSpaceOnUse">
      <stop stop-color="#F97292"/>
      <stop offset="1" stop-color="#F46889" stop-opacity="0"/>
    </linearGradient>
    <linearGradient id="paint42_linear_19_453" x1="12.635" y1="18.0009" x2="14.632" y2="16.7529" gradientUnits="userSpaceOnUse">
      <stop stop-color="#DD2345" stop-opacity="0"/>
      <stop offset="0.545" stop-color="#E72044"/>
      <stop offset="1" stop-color="#D12847"/>
    </linearGradient>
  </defs>
</svg>