<svg width="135" height="36" viewBox="0 0 135 36" fill="none" xmlns="http://www.w3.org/2000/svg">
<path d="M10.944 17.68C10.944 17.536 10.944 17.404 10.944 17.284C10.944 17.14 10.956 17.008 10.98 16.888C9.42 16.72 8.112 16.48 7.056 16.168C6.024 15.856 5.184 15.496 4.536 15.088C3.912 14.656 3.468 14.188 3.204 13.684C2.94 13.156 2.808 12.592 2.808 11.992C2.808 11.296 2.964 10.66 3.276 10.084C3.612 9.484 4.2 8.956 5.04 8.5C4.2 8.284 3.564 7.984 3.132 7.6C2.724 7.192 2.52 6.652 2.52 5.98C2.52 5.14 2.808 4.516 3.384 4.108C3.984 3.676 4.752 3.436 5.688 3.388C6.768 3.34 7.752 3.436 8.64 3.676C9.552 3.916 10.416 4.276 11.232 4.756C10.728 4.42 10.368 4.096 10.152 3.784C9.936 3.448 9.852 3.052 9.9 2.596C9.948 2.14 10.152 1.78 10.512 1.516C10.872 1.252 11.352 1.06 11.952 0.939999C12.576 0.795999 13.32 0.711999 14.184 0.687998C15.048 0.639998 16.02 0.615999 17.1 0.615999C18.156 0.615999 19.116 0.639998 19.98 0.687998C20.844 0.711999 21.576 0.795999 22.176 0.939999C22.8 1.06 23.292 1.252 23.652 1.516C24.012 1.78 24.216 2.14 24.264 2.596C24.312 3.028 24.216 3.412 23.976 3.748C23.76 4.084 23.388 4.42 22.86 4.756C23.676 4.276 24.552 3.916 25.488 3.676C26.424 3.436 27.432 3.34 28.512 3.388C29.424 3.46 30.168 3.676 30.744 4.036C31.32 4.396 31.608 4.984 31.608 5.8C31.608 7.096 30.756 7.972 29.052 8.428C29.916 8.884 30.516 9.412 30.852 10.012C31.188 10.612 31.356 11.272 31.356 11.992C31.356 12.592 31.212 13.156 30.924 13.684C30.66 14.188 30.204 14.656 29.556 15.088C28.932 15.496 28.092 15.856 27.036 16.168C25.98 16.48 24.672 16.72 23.112 16.888C23.136 17.008 23.148 17.14 23.148 17.284C23.148 17.404 23.148 17.536 23.148 17.68V18.004C24.3 17.956 25.428 17.92 26.532 17.896C27.66 17.848 28.764 17.788 29.844 17.716C30.9 17.668 31.716 17.884 32.292 18.364C32.892 18.82 33.192 19.396 33.192 20.092C33.192 20.932 32.892 21.568 32.292 22C31.716 22.408 30.888 22.648 29.808 22.72C27.816 22.864 25.728 22.972 23.544 23.044C21.36 23.116 19.152 23.152 16.92 23.152C14.712 23.152 12.528 23.116 10.368 23.044C8.208 22.972 6.168 22.864 4.248 22.72C3.216 22.624 2.4 22.372 1.8 21.964C1.224 21.556 0.936 20.932 0.936 20.092C0.936 19.396 1.224 18.82 1.8 18.364C2.4 17.884 3.216 17.668 4.248 17.716C6.312 17.86 8.544 17.968 10.944 18.04V17.68ZM14.616 9.256C15.288 9.784 16.032 10.216 16.848 10.552C17.688 10.888 18.54 11.14 19.404 11.308C19.596 11.332 19.74 11.296 19.836 11.2C19.956 11.104 20.028 10.996 20.052 10.876C20.076 10.732 20.052 10.6 19.98 10.48C19.932 10.36 19.836 10.288 19.692 10.264C18.78 10.072 17.976 9.82 17.28 9.508C16.608 9.196 15.924 8.8 15.228 8.32C15.108 8.224 14.976 8.2 14.832 8.248C14.712 8.296 14.604 8.38 14.508 8.5C14.436 8.596 14.4 8.716 14.4 8.86C14.4 9.004 14.472 9.136 14.616 9.256ZM2.808 32.62C2.544 31.708 2.412 30.748 2.412 29.74C2.412 28.732 2.508 27.808 2.7 26.968C2.892 26.2 3.216 25.66 3.672 25.348C4.152 25.012 4.86 24.784 5.796 24.664C7.548 24.424 9.384 24.244 11.304 24.124C13.224 23.98 15.144 23.908 17.064 23.908C19.008 23.908 20.928 23.98 22.824 24.124C24.72 24.244 26.544 24.424 28.296 24.664C29.232 24.784 29.94 25.012 30.42 25.348C30.9 25.66 31.236 26.2 31.428 26.968C31.62 27.808 31.716 28.732 31.716 29.74C31.716 30.748 31.584 31.708 31.32 32.62C31.128 33.388 30.804 33.928 30.348 34.24C29.916 34.576 29.232 34.804 28.296 34.924C26.52 35.116 24.684 35.248 22.788 35.32C20.892 35.416 18.984 35.464 17.064 35.464C15.144 35.464 13.224 35.416 11.304 35.32C9.408 35.248 7.572 35.116 5.796 34.924C4.86 34.804 4.176 34.576 3.744 34.24C3.312 33.928 3 33.388 2.808 32.62ZM14.04 29.092C13.848 29.404 14.004 29.692 14.508 29.956C15.324 30.412 16.176 30.64 17.064 30.64C17.976 30.616 18.84 30.388 19.656 29.956C20.04 29.788 20.172 29.524 20.052 29.164C20.004 29.02 19.896 28.912 19.728 28.84C19.584 28.744 19.416 28.732 19.224 28.804C18.6 29.164 17.868 29.344 17.028 29.344C16.212 29.344 15.48 29.152 14.832 28.768C14.712 28.72 14.568 28.72 14.4 28.768C14.232 28.792 14.112 28.9 14.04 29.092ZM61.675 35.5C60.211 35.5 59.047 35.092 58.183 34.276C57.319 33.46 56.995 32.236 57.211 30.604C57.643 26.716 57.859 22.852 57.859 19.012C57.859 15.172 57.655 11.392 57.247 7.672C57.127 6.784 57.151 6.016 57.319 5.368C57.511 4.696 57.799 4.144 58.183 3.712C58.591 3.28 59.095 2.956 59.695 2.74C60.295 2.524 60.955 2.416 61.675 2.416C62.947 2.416 64.003 2.776 64.843 3.496C65.683 4.216 66.163 5.32 66.283 6.808C66.691 10.72 66.895 14.776 66.895 18.976C66.895 23.176 66.691 27.244 66.283 31.18C66.163 32.62 65.683 33.7 64.843 34.42C64.003 35.14 62.947 35.5 61.675 35.5ZM37.771 25.852C37.603 24.58 37.471 23.284 37.375 21.964C37.279 20.644 37.219 19.348 37.195 18.076C37.171 16.78 37.183 15.544 37.231 14.368C37.303 13.168 37.411 12.076 37.555 11.092C36.715 10.876 36.091 10.444 35.683 9.796C35.275 9.148 35.071 8.32 35.071 7.312C35.071 6.184 35.335 5.296 35.863 4.648C36.391 3.976 37.195 3.568 38.275 3.424C39.187 3.304 40.267 3.208 41.515 3.136C42.763 3.064 44.047 3.016 45.367 2.992C46.687 2.968 47.971 2.98 49.219 3.028C50.491 3.076 51.583 3.148 52.495 3.244C53.575 3.364 54.367 3.76 54.871 4.432C55.399 5.104 55.663 6.016 55.663 7.168C55.663 8.104 55.471 8.884 55.087 9.508C54.727 10.132 54.175 10.576 53.431 10.84C53.575 11.848 53.683 12.964 53.755 14.188C53.827 15.412 53.851 16.684 53.827 18.004C53.827 19.324 53.779 20.68 53.683 22.072C53.587 23.44 53.443 24.772 53.251 26.068C54.067 26.308 54.667 26.752 55.051 27.4C55.459 28.024 55.663 28.84 55.663 29.848C55.663 32.2 54.607 33.52 52.495 33.808C51.583 33.904 50.491 33.976 49.219 34.024C47.971 34.072 46.687 34.084 45.367 34.06C44.047 34.036 42.763 33.988 41.515 33.916C40.267 33.844 39.187 33.736 38.275 33.592C36.139 33.304 35.071 31.996 35.071 29.668C35.071 28.636 35.287 27.796 35.719 27.148C36.175 26.476 36.859 26.044 37.771 25.852ZM44.971 25.564H45.403H46.087C46.159 24.364 46.207 23.2 46.231 22.072C46.279 20.944 46.303 19.816 46.303 18.688C46.303 17.56 46.279 16.408 46.231 15.232C46.183 14.056 46.123 12.796 46.051 11.452H45.475H44.971C44.899 12.772 44.839 14.032 44.791 15.232C44.767 16.408 44.755 17.56 44.755 18.688C44.755 19.816 44.767 20.944 44.791 22.072C44.839 23.2 44.899 24.364 44.971 25.564ZM90.3381 22.432C90.3621 23.392 90.3621 24.484 90.3381 25.708C90.2661 27.508 90.1341 28.972 89.9421 30.1C89.7741 31.204 89.5221 32.056 89.1861 32.656C88.8501 33.28 88.4421 33.7 87.9621 33.916C87.4821 34.132 86.9181 34.24 86.2701 34.24C85.4061 34.24 84.6861 34.144 84.1101 33.952C83.5341 33.76 83.0661 33.352 82.7061 32.728C82.3461 32.128 82.0821 31.264 81.9141 30.136C81.7701 29.008 81.6981 27.52 81.6981 25.672C81.6981 23.512 81.5661 21.7 81.3021 20.236C81.0621 18.772 80.5701 17.44 79.8261 16.24C79.7061 16.072 79.5501 15.976 79.3581 15.952C79.1901 15.904 79.0341 15.916 78.8901 15.988C78.7701 16.06 78.6861 16.192 78.6381 16.384C78.6141 16.552 78.6861 16.756 78.8541 16.996C79.1421 17.428 79.3821 17.932 79.5741 18.508C79.7901 19.06 79.9701 19.708 80.1141 20.452C80.2581 21.196 80.3541 22.036 80.4021 22.972C80.4741 23.908 80.5101 24.988 80.5101 26.212C80.5101 27.892 80.4141 29.248 80.2221 30.28C80.0541 31.312 79.7541 32.104 79.3221 32.656C78.9141 33.232 78.3621 33.616 77.6661 33.808C76.9701 34 76.1181 34.096 75.1101 34.096C74.2461 34.096 73.4541 33.928 72.7341 33.592C72.0381 33.28 71.4381 32.776 70.9341 32.08C70.4301 31.384 70.0341 30.484 69.7461 29.38C69.4581 28.252 69.3021 26.908 69.2781 25.348C69.2301 23.956 69.2421 22.732 69.3141 21.676C69.4101 20.596 69.5661 19.648 69.7821 18.832C69.9981 18.016 70.2861 17.308 70.6461 16.708C71.0301 16.084 71.4861 15.532 72.0141 15.052C72.4701 14.644 72.8901 14.236 73.2741 13.828C73.6581 13.396 73.9701 12.94 74.2101 12.46C74.4741 11.956 74.6781 11.404 74.8221 10.804C74.9661 10.18 75.0381 9.448 75.0381 8.608C75.0381 6.712 75.3981 5.38 76.1181 4.612C76.8621 3.82 78.0981 3.424 79.8261 3.424C81.3621 3.424 82.5141 3.808 83.2821 4.576C84.0501 5.344 84.4341 6.64 84.4341 8.464C84.4341 9.088 84.5061 9.664 84.6501 10.192C84.8181 10.72 85.0221 11.212 85.2621 11.668C85.5261 12.124 85.8261 12.556 86.1621 12.964C86.4981 13.372 86.8581 13.768 87.2421 14.152C87.4341 13.264 87.7341 12.676 88.1421 12.388C88.5501 12.076 89.0421 11.92 89.6181 11.92H91.5261C91.4781 11.2 91.4181 10.492 91.3461 9.796C91.2981 9.076 91.2261 8.368 91.1301 7.672C90.9381 5.872 91.2621 4.552 92.1021 3.712C92.9661 2.848 94.1301 2.416 95.5941 2.416C96.8901 2.416 97.9461 2.776 98.7621 3.496C99.5781 4.216 100.058 5.32 100.202 6.808C100.61 10.72 100.814 14.776 100.814 18.976C100.814 23.176 100.61 27.244 100.202 31.18C100.058 32.62 99.5781 33.7 98.7621 34.42C97.9461 35.14 96.8901 35.5 95.5941 35.5C94.8741 35.5 94.2141 35.392 93.6141 35.176C93.0141 34.984 92.5101 34.684 92.1021 34.276C91.7181 33.868 91.4301 33.352 91.2381 32.728C91.0461 32.128 90.9981 31.42 91.0941 30.604C91.2621 29.236 91.3941 27.88 91.4901 26.536C91.5861 25.168 91.6581 23.8 91.7061 22.432H90.3381ZM129.765 35.5C129.045 35.5 128.385 35.392 127.785 35.176C127.185 34.984 126.681 34.684 126.273 34.276C125.865 33.868 125.565 33.352 125.373 32.728C125.181 32.128 125.133 31.42 125.229 30.604C125.685 26.716 125.913 22.852 125.913 19.012C125.913 15.172 125.697 11.392 125.265 7.672C125.073 5.872 125.409 4.552 126.273 3.712C127.137 2.848 128.301 2.416 129.765 2.416C131.037 2.416 132.081 2.776 132.897 3.496C133.737 4.216 134.229 5.32 134.373 6.808C134.781 10.72 134.985 14.776 134.985 18.976C134.985 23.176 134.781 27.244 134.373 31.18C134.229 32.62 133.737 33.7 132.897 34.42C132.081 35.14 131.037 35.5 129.765 35.5ZM107.625 11.2C106.209 11.08 105.177 10.66 104.529 9.94C103.881 9.22 103.557 8.38 103.557 7.42C103.557 6.94 103.641 6.472 103.809 6.016C103.977 5.56 104.229 5.164 104.565 4.828C104.925 4.468 105.369 4.18 105.897 3.964C106.449 3.724 107.085 3.592 107.805 3.568C108.885 3.52 109.893 3.496 110.829 3.496C111.789 3.472 112.809 3.46 113.889 3.46C114.921 3.46 115.917 3.472 116.877 3.496C117.861 3.496 118.881 3.52 119.937 3.568C120.657 3.592 121.281 3.724 121.809 3.964C122.337 4.18 122.769 4.468 123.105 4.828C123.465 5.164 123.729 5.56 123.897 6.016C124.065 6.472 124.149 6.94 124.149 7.42C124.149 8.38 123.825 9.22 123.177 9.94C122.529 10.66 121.521 11.08 120.153 11.2C120.321 12.088 120.573 12.868 120.909 13.54C121.245 14.188 121.629 14.86 122.061 15.556C122.349 16.036 122.637 16.552 122.925 17.104C123.213 17.632 123.465 18.28 123.681 19.048C123.897 19.816 124.053 20.752 124.149 21.856C124.269 22.96 124.305 24.316 124.257 25.924C124.185 27.7 124.053 29.128 123.861 30.208C123.693 31.288 123.441 32.128 123.105 32.728C122.793 33.328 122.397 33.724 121.917 33.916C121.437 34.132 120.873 34.24 120.225 34.24C119.385 34.24 118.677 34.144 118.101 33.952C117.549 33.76 117.093 33.364 116.733 32.764C116.397 32.188 116.145 31.348 115.977 30.244C115.833 29.14 115.761 27.688 115.761 25.888C115.761 24.496 115.677 23.2 115.509 22C115.341 20.8 115.113 19.756 114.825 18.868C114.753 18.628 114.633 18.46 114.465 18.364C114.297 18.268 114.141 18.244 113.997 18.292C113.853 18.316 113.733 18.4 113.637 18.544C113.565 18.688 113.565 18.868 113.637 19.084C113.925 19.9 114.165 20.932 114.357 22.18C114.549 23.404 114.645 24.82 114.645 26.428C114.645 28.06 114.549 29.38 114.357 30.388C114.189 31.396 113.889 32.176 113.457 32.728C113.025 33.28 112.461 33.64 111.765 33.808C111.093 34 110.253 34.096 109.245 34.096C107.541 34.096 106.185 33.436 105.177 32.116C104.169 30.82 103.629 28.648 103.557 25.6C103.509 24.232 103.545 23.056 103.665 22.072C103.809 21.088 104.001 20.212 104.241 19.444C104.505 18.676 104.805 17.992 105.141 17.392C105.477 16.792 105.837 16.204 106.221 15.628C106.653 14.98 106.977 14.332 107.193 13.684C107.409 13.012 107.553 12.184 107.625 11.2Z" fill="#F96F99"/>
</svg>
