<svg width="20" height="20" viewBox="0 0 20 20" fill="none" xmlns="http://www.w3.org/2000/svg">
<circle cx="10" cy="10" r="10" fill="#F6F6F6"/>
<path d="M13.6842 10.613H10.6141V13.6831C10.6141 13.846 10.5494 14.0022 10.4342 14.1173C10.3191 14.2325 10.1629 14.2972 10 14.2972C9.83718 14.2972 9.68099 14.2325 9.56584 14.1173C9.45069 14.0022 9.38599 13.846 9.38599 13.6831V10.613H6.31582C6.15297 10.613 5.99678 10.5483 5.88163 10.4331C5.76648 10.318 5.70178 10.1618 5.70178 9.99893C5.70178 9.83608 5.76648 9.6799 5.88163 9.56474C5.99678 9.44959 6.15297 9.38489 6.31582 9.38489H9.38599V6.31472C9.38599 6.15187 9.45069 5.99568 9.56584 5.88053C9.68099 5.76538 9.83718 5.70068 10 5.70068C10.1629 5.70068 10.3191 5.76538 10.4342 5.88053C10.5494 5.99568 10.6141 6.15187 10.6141 6.31472V9.38489H13.6842C13.8471 9.38489 14.0033 9.44959 14.1184 9.56474C14.2336 9.6799 14.2983 9.83608 14.2983 9.99893C14.2983 10.1618 14.2336 10.318 14.1184 10.4331C14.0033 10.5483 13.8471 10.613 13.6842 10.613Z" fill="#F96F99"/>
</svg>
